<svg width="171" height="131" viewBox="0 0 171 131" fill="none" xmlns="http://www.w3.org/2000/svg">
<path fill-rule="evenodd" clip-rule="evenodd" d="M0 19C0 8.50659 8.50659 0 19 0H151.427C161.92 0 170.427 8.50659 170.427 19V111.607C170.427 122.101 161.92 130.607 151.427 130.607H19C8.50659 130.607 0 122.101 0 111.607V19ZM51.7368 54.5479C51.7368 46.8159 58.0048 40.5479 65.7368 40.5479H144.634C152.366 40.5479 158.634 46.8159 158.634 54.5479V58.1327C158.634 65.8647 152.366 72.1327 144.634 72.1327H65.7367C58.0048 72.1327 51.7368 65.8647 51.7368 58.1327V54.5479ZM25.793 78.9622C18.061 78.9622 11.793 85.2302 11.793 92.9622V96.547C11.793 104.279 18.061 110.547 25.793 110.547H104.69C112.422 110.547 118.69 104.279 118.69 96.547V92.9622C118.69 85.2302 112.422 78.9622 104.69 78.9622H25.793ZM11.793 54.6233C11.793 46.8496 18.0948 40.5479 25.8684 40.5479C33.6421 40.5479 39.9438 46.8496 39.9438 54.6233V58.0573C39.9438 65.8309 33.6421 72.1327 25.8684 72.1327C18.0948 72.1327 11.793 65.8309 11.793 58.0572V54.6233ZM144.559 78.9622C136.785 78.9622 130.483 85.264 130.483 93.0376V96.4716C130.483 104.245 136.785 110.547 144.559 110.547C152.332 110.547 158.634 104.245 158.634 96.4716V93.0376C158.634 85.264 152.332 78.9622 144.559 78.9622Z" fill="white"/>
</svg>
