<svg width="151" height="116" viewBox="0 0 151 116" fill="none" xmlns="http://www.w3.org/2000/svg">
<path d="M145.338 76.9745C127.897 101.463 102.378 115.563 75.5 115.563C62.061 115.563 48.9995 112.055 37.0705 105.511C25.1415 98.8998 14.4205 89.2527 5.6625 76.9745C-1.8875 66.3829 -1.8875 49.18 5.6625 38.5884C23.103 14.0321 48.622 -2.16466e-05 75.5 -2.16466e-05C88.939 -2.16466e-05 102.001 3.50802 113.93 10.0519C125.859 16.6632 136.58 26.3103 145.338 38.5884C152.888 49.1125 152.888 66.3829 145.338 76.9745ZM75.5 30.4929C58.588 30.4929 44.998 42.7036 44.998 57.7477C44.998 72.7919 58.588 85.0026 75.5 85.0026C92.412 85.0026 106.002 72.7919 106.002 57.7477C106.002 42.7036 92.412 30.4929 75.5 30.4929Z" fill="white"/>
<path d="M75.4879 77.0354C63.6344 77.0354 53.9707 68.4004 53.9707 57.7413C53.9707 47.1497 63.6344 38.5146 75.4879 38.5146C87.3414 38.5146 97.0809 47.1497 97.0809 57.7413C97.0809 68.3329 87.3414 77.0354 75.4879 77.0354Z" fill="white"/>
</svg>
