<svg xmlns="http://www.w3.org/2000/svg" viewBox="0 0 24 25">
    <g>
        <path d="M21 11.001a.972.972 0 01-.983 1.001c-.553 0-1-.449-1.024-1a34.68 34.68 0 00-.441-4.12l-3.84 3.835a1.003 1.003 0 01-1.416-1.415l3.852-3.85a34.689 34.689 0 00-4.146-.446A1.035 1.035 0 0112 3.984a.972.972 0 011.002-.981c1.725.066 3.386.289 4.66.506 1.098.187 1.647.28 2.099.731.451.45.545 1 .732 2.097.217 1.272.44 2.941.506 4.664zM3 13.003a.972.972 0 01.983-1.001c.554 0 1 .448 1.024 1 .062 1.495.25 2.963.444 4.136l3.836-3.832a1 1 0 111.417 1.416l-3.836 3.832c1.175.194 2.635.382 4.13.444.553.022 1.002.469 1.002 1.022a.972.972 0 01-1.002.981 36.826 36.826 0 01-4.66-.506c-1.098-.187-1.647-.28-2.099-.731-.451-.451-.545-1-.732-2.097a36.872 36.872 0 01-.506-4.664z"></path>
    </g>
</svg>