<svg width="78" height="82" viewBox="0 0 78 82" fill="none" xmlns="http://www.w3.org/2000/svg">
<path d="M20.4226 82C16.9304 82 13.6151 81.1601 10.6976 79.4803C3.80161 75.5019 0 67.4124 0 56.759V25.241C0 14.5434 3.80161 6.49814 10.6976 2.51971C17.5935 -1.45872 26.4787 -0.707239 35.7617 4.64154L63.036 20.3785C72.2748 25.7272 77.4026 33.0653 77.4026 41.0221C77.4026 48.979 72.3191 56.317 63.036 61.6658L35.7617 77.4027C30.4129 80.4528 25.1967 82 20.4226 82ZM20.4226 6.58655C18.0356 6.58655 15.9137 7.11701 14.0129 8.22213C9.2388 10.9628 6.63072 17.0189 6.63072 25.241V56.7148C6.63072 64.9369 9.2388 70.9488 14.0129 73.7337C18.787 76.5186 25.3294 75.7229 32.4463 71.6119L59.7207 55.875C66.8377 51.7639 70.7719 46.5035 70.7719 40.9779C70.7719 35.4523 66.8377 30.1919 59.7207 26.0809L32.4463 10.344C28.1143 7.86849 24.0474 6.58655 20.4226 6.58655Z" fill="white"/>
</svg>
