<svg width="135" height="139" viewBox="0 0 135 139" fill="none" xmlns="http://www.w3.org/2000/svg">
<g clip-path="url(#clip0_37_21)">
<mask id="mask0_37_21" style="mask-type:luminance" maskUnits="userSpaceOnUse" x="0" y="0" width="135" height="139">
<path d="M0 0H134.62V138.02H0V0Z" fill="white"/>
</mask>
<g mask="url(#mask0_37_21)">
<path fill-rule="evenodd" clip-rule="evenodd" d="M90.1325 74.0624C89.7031 80.081 89.4885 83.0864 85.4481 87.1345C81.4 91.1827 78.3946 91.3973 72.3761 91.819C69.007 92.0584 65.6251 92.0584 62.256 91.819C56.2375 91.3897 53.2321 91.1827 49.184 87.1345C45.136 83.0864 44.9213 80.081 44.4996 74.0624C44.2602 70.6932 44.2602 67.3113 44.4996 63.9421C44.929 57.9235 45.136 54.9181 49.184 50.8699C53.2321 46.8218 56.2375 46.6148 62.256 46.1854C65.6251 45.946 69.007 45.946 72.3761 46.1854C78.3946 46.6148 81.4 46.8218 85.4481 50.8699C89.4885 54.9181 89.7031 57.9235 90.1325 63.9421C90.3718 67.3113 90.3718 70.6932 90.1325 74.0624ZM71.2875 76.5235C68.6432 76.7111 65.9889 76.7111 63.3446 76.5235C62.2541 76.4586 61.1651 76.3691 60.0786 76.2552H60.0632V76.2398C59.805 73.8357 59.6668 71.4201 59.6492 69.0022C59.6672 66.5843 59.8054 64.1688 60.0632 61.7647V61.7493H60.0786C62.4827 61.4911 64.8982 61.3529 67.316 61.3353C69.7339 61.3533 72.1494 61.4914 74.5535 61.7493H74.5689V61.7647C74.8267 64.1688 74.9649 66.5843 74.9829 69.0022C74.9653 71.4201 74.8271 73.8357 74.5689 76.2398V76.2552H74.5535C73.8098 76.3395 72.8975 76.4085 71.2875 76.5235Z" fill="white"/>
<path fill-rule="evenodd" clip-rule="evenodd" d="M72.6751 138.005H61.9493C59.3196 138.005 56.6668 138.005 54.4281 137.713C51.8214 137.376 48.9694 136.571 46.378 134.394C43.8403 132.247 42.5446 129.625 41.7779 127.125C41.147 124.892 40.6579 122.62 40.3135 120.325C38.968 119.615 37.6508 118.853 36.3651 118.04C34.2068 118.889 31.9969 119.601 29.7487 120.172C27.1956 120.747 24.2822 120.938 21.1542 119.811C17.9724 118.661 15.8411 116.591 14.254 114.506C12.874 112.712 11.5553 110.411 10.2443 108.142L4.87753 98.8498C3.5665 96.5727 2.24015 94.2803 1.36613 92.1949C0.361778 89.7721 -0.366568 86.8894 0.223776 83.5619C0.814121 80.2881 2.43948 77.8654 4.21052 75.941C5.65188 74.3846 7.52258 72.8052 9.37795 71.2641C9.31993 69.7569 9.31993 68.2479 9.37795 66.7407C7.55608 65.2923 5.82759 63.7303 4.20285 62.0638C2.42415 60.1318 0.798786 57.709 0.216108 54.4352C-0.381903 51.1078 0.346445 48.225 1.35846 45.8023C2.39249 43.5146 3.56514 41.2922 4.86986 39.1474L10.2366 29.855C11.54 27.578 12.8663 25.2855 14.2387 23.4915C15.8334 21.4061 17.9648 19.3283 21.1388 18.1783C24.2746 17.0513 27.188 17.2429 29.741 17.818C31.811 18.2856 34.1111 19.1213 36.3728 19.9647C37.6532 19.152 38.9642 18.393 40.3135 17.6876C40.7199 15.3109 41.1416 12.9034 41.7702 10.8794C42.5522 8.37996 43.8403 5.75787 46.3857 3.61113C48.9694 1.43372 51.8291 0.621022 54.4281 0.291344C56.6822 8.28285e-07 59.3272 0 61.9493 0H72.6675C75.2972 0 77.9422 8.28285e-07 80.1886 0.291344C82.7953 0.628689 85.6474 1.43372 88.2388 3.61113C90.7765 5.75787 92.0645 8.37996 92.8389 10.8794C93.4752 12.9034 93.8969 15.3109 94.3032 17.6876C95.6526 18.393 96.9636 19.152 98.244 19.9647C100.498 19.129 102.79 18.2933 104.86 17.8256C107.413 17.2506 110.327 17.0589 113.455 18.186C116.637 19.336 118.768 21.4061 120.355 23.4915C121.735 25.2932 123.054 27.5856 124.365 29.8627L129.732 39.1474C131.043 41.4244 132.369 43.7245 133.243 45.8099C134.247 48.2327 134.976 51.1078 134.385 54.4352C133.795 57.7167 132.17 60.1394 130.399 62.0638C128.779 63.725 127.055 65.2819 125.239 66.7253C125.297 68.2377 125.297 69.7518 125.239 71.2641C127.094 72.8129 128.98 74.3846 130.422 75.9486C132.193 77.873 133.818 80.2958 134.408 83.5772C134.999 86.9047 134.27 89.7875 133.258 92.2025C132.392 94.2956 131.066 96.588 129.755 98.8651L124.388 108.15C123.182 110.353 121.843 112.481 120.378 114.521C118.783 116.606 116.652 118.676 113.478 119.826C110.342 120.954 107.436 120.762 104.883 120.187C102.813 119.727 100.506 118.883 98.244 118.04C96.9609 118.853 95.6463 119.615 94.3032 120.325C93.8969 122.702 93.4752 125.101 92.8465 127.125C92.0645 129.625 90.7765 132.247 88.2311 134.394C85.6474 136.571 82.7877 137.384 80.181 137.713C77.6847 137.963 75.1756 138.06 72.6675 138.005H72.6751ZM79.3223 117.013C78.8163 119.964 78.5403 121.483 78.2259 122.51C77.0912 122.656 75.4582 122.671 72.3071 122.671H62.3249C59.1739 122.671 57.5409 122.656 56.3985 122.51C56.0918 121.483 55.8158 119.964 55.3098 117.013L55.1258 115.939C54.8115 114.102 54.0631 112.367 52.943 110.877C51.8229 109.388 50.3633 108.187 48.6857 107.375C46.8623 106.487 45.1047 105.47 43.4263 104.332C41.883 103.279 40.1102 102.612 38.2562 102.385C36.4021 102.159 34.5208 102.379 32.7694 103.028L31.7497 103.404C28.9437 104.439 27.4946 104.953 26.4443 105.198C25.7543 104.286 24.9186 102.883 23.3469 100.153L18.3481 91.5048C16.7764 88.7754 15.9714 87.3494 15.5267 86.2913C16.2627 85.5093 17.4434 84.5126 19.7435 82.5959L20.5868 81.9058C23.6152 79.4064 25.0336 75.665 24.7806 72.0462C24.6383 70.022 24.6383 67.9904 24.7806 65.9663C24.9174 64.1076 24.6081 62.2432 23.8787 60.5282C23.1492 58.8132 22.0206 57.2972 20.5868 56.1066L19.7281 55.4013C17.4281 53.4845 16.2551 52.4878 15.5191 51.6981C15.9637 50.6401 16.7611 49.2217 18.3405 46.4923L23.3315 37.844C24.9109 35.1146 25.7389 33.7038 26.4366 32.7915C27.4793 33.0368 28.9283 33.5582 31.742 34.5932L32.7771 34.9765C36.4571 36.3566 40.4209 35.7126 43.4339 33.6732C45.0976 32.5385 46.8533 31.5264 48.678 30.6371C51.9441 29.05 54.4741 25.9449 55.1258 22.0731L55.3098 20.9921C55.8158 18.0403 56.0918 16.5222 56.4062 15.4949C57.5409 15.3492 59.1662 15.3339 62.3249 15.3339H72.3071C75.4505 15.3339 77.0912 15.3492 78.2259 15.4949C78.5403 16.5222 78.8163 18.0403 79.3223 20.9921L79.5063 22.0654C80.158 25.9449 82.688 29.0423 85.9464 30.6371C87.7788 31.5264 89.5268 32.5461 91.1982 33.6732C94.2112 35.7126 98.1673 36.3566 101.855 34.9765L102.875 34.6009C105.681 33.5658 107.13 33.0445 108.18 32.8068C108.87 33.7115 109.706 35.1222 111.278 37.8516L116.276 46.4999C117.848 49.2294 118.653 50.6478 119.098 51.7135C118.362 52.4955 117.189 53.4922 114.881 55.4013L114.038 56.0913C111.017 58.5984 109.591 62.3322 109.852 65.9586C109.993 67.9828 109.993 70.0144 109.852 72.0385C109.599 75.665 111.017 79.3988 114.045 81.8982L114.904 82.6112C117.204 84.5279 118.385 85.5246 119.121 86.3067C118.676 87.3647 117.871 88.7831 116.299 91.5202L111.301 100.168C109.729 102.898 108.893 104.309 108.195 105.213C107.153 104.976 105.704 104.447 102.89 103.412L101.855 103.028C100.104 102.379 98.2223 102.159 96.3683 102.385C94.5142 102.612 92.7415 103.279 91.1982 104.332C89.5223 105.47 87.7672 106.487 85.9464 107.375C84.2684 108.187 82.8085 109.387 81.6883 110.877C80.5681 112.366 79.82 114.102 79.5063 115.939L79.3223 117.013Z" fill="white"/>
</g>
</g>
<defs>
<clipPath id="clip0_37_21">
<rect width="134.62" height="138.02" fill="white"/>
</clipPath>
</defs>
</svg>
