<svg width="91" height="84" viewBox="0 0 91 84" fill="none" xmlns="http://www.w3.org/2000/svg">
<path d="M81.6435 29.2845C73.4791 29.2845 70.1412 23.6553 74.2008 16.7508C76.5464 12.7488 75.1481 7.64734 71.0433 5.36049L63.2399 1.00666C59.6764 -1.0603 55.0755 0.171081 52.9555 3.64534L52.4593 4.48093C48.3997 11.3855 41.7239 11.3855 37.6191 4.48093L37.123 3.64534C35.0932 0.171081 30.4923 -1.0603 26.9288 1.00666L19.1253 5.36049C15.0206 7.64734 13.6223 12.7928 15.9678 16.7948C20.0726 23.6553 16.7347 29.2845 8.57031 29.2845C3.87919 29.2845 0 33.0227 0 37.6403V45.3805C0 49.9542 3.83409 53.7363 8.57031 53.7363C16.7347 53.7363 20.0726 59.3655 15.9678 66.27C13.6223 70.272 15.0206 75.3735 19.1253 77.6603L26.9288 82.0142C30.4923 84.0811 35.0932 82.8498 37.2132 79.3755L37.7094 78.5399C41.769 71.6354 48.4448 71.6354 52.5495 78.5399L53.0457 79.3755C55.1657 82.8498 59.7666 84.0811 63.3301 82.0142L71.1336 77.6603C75.2383 75.3735 76.6366 70.2281 74.291 66.27C70.1863 59.3655 73.5242 53.7363 81.6886 53.7363C86.3797 53.7363 90.2589 49.9982 90.2589 45.3805V37.6403C90.2138 33.0666 86.3797 29.2845 81.6435 29.2845ZM45.1069 55.8033C37.0328 55.8033 30.4471 49.3825 30.4471 41.5104C30.4471 33.6383 37.0328 27.2176 45.1069 27.2176C53.181 27.2176 59.7666 33.6383 59.7666 41.5104C59.7666 49.3825 53.181 55.8033 45.1069 55.8033Z" fill="white"/>
</svg>
