<svg width="102" height="83" viewBox="0 0 102 83" fill="none" xmlns="http://www.w3.org/2000/svg">
<path d="M4 32.3865V51.1393C4 60.5157 8.68821 65.2039 18.0646 65.2039H24.7688C26.5034 65.2039 28.2381 65.7196 29.7383 66.6104L43.4279 75.1898C55.2422 82.5972 64.9468 77.2058 64.9468 63.2818V20.2441C64.9468 6.27325 55.2422 0.928691 43.4279 8.33607L29.7383 16.9155C28.2381 17.8063 26.5034 18.322 24.7688 18.322H18.0646C8.68821 18.322 4 23.0102 4 32.3865Z" stroke="white" stroke-width="8"/>
<path d="M79.0112 23.0101C87.3562 34.1211 87.3562 49.4047 79.0112 60.5158" stroke="white" stroke-width="8" stroke-linecap="round" stroke-linejoin="round"/>
<path d="M87.5908 11.2895C101.14 29.3391 101.14 54.1866 87.5908 72.2363" stroke="white" stroke-width="8" stroke-linecap="round" stroke-linejoin="round"/>
</svg>
